<svg width="24" height="23" viewBox="0 0 24 23" fill="none" xmlns="http://www.w3.org/2000/svg">
<path d="M4.6256 22.6292C5.05679 22.9657 5.60367 22.8501 6.25571 22.3768L11.8191 18.2858L17.393 22.3768C18.0451 22.8501 18.5814 22.9657 19.0231 22.6292C19.4543 22.3032 19.549 21.7668 19.2861 20.9991L17.088 14.4576L22.704 10.4192C23.3561 9.95643 23.619 9.47266 23.4507 8.94682C23.2824 8.44201 22.7882 8.1896 21.9784 8.20012L15.0898 8.24219L12.997 1.66917C12.7446 0.890927 12.366 0.501804 11.8191 0.501804C11.2828 0.501804 10.9041 0.890927 10.6517 1.66917L8.55889 8.24219L1.67037 8.20012C0.860577 8.1896 0.366286 8.44201 0.198017 8.94682C0.0192306 9.47266 0.292668 9.95643 0.944711 10.4192L6.5607 14.4576L4.36268 20.9991C4.09976 21.7668 4.19441 22.3032 4.6256 22.6292ZM6.14002 20.5469C6.11899 20.5258 6.12951 20.5153 6.14002 20.4522L8.23287 14.4366C8.38011 14.0264 8.29597 13.7004 7.92788 13.448L2.6905 9.83023C2.63792 9.79868 2.6274 9.77765 2.63792 9.74609C2.64844 9.71454 2.66947 9.71454 2.73257 9.71454L9.09525 9.83023C9.52644 9.84075 9.79988 9.66196 9.9366 9.23077L11.7665 3.14153C11.777 3.07843 11.7981 3.05739 11.8191 3.05739C11.8507 3.05739 11.8717 3.07843 11.8822 3.14153L13.7121 9.23077C13.8489 9.66196 14.1223 9.84075 14.5535 9.83023L20.9162 9.71454C20.9793 9.71454 21.0003 9.71454 21.0108 9.74609C21.0213 9.77765 21.0003 9.79868 20.9582 9.83023L15.7209 13.448C15.3528 13.7004 15.2686 14.0264 15.4159 14.4366L17.5087 20.4522C17.5192 20.5153 17.5297 20.5258 17.5087 20.5469C17.4877 20.5784 17.4561 20.5574 17.4141 20.5258L12.3555 16.6662C12.0189 16.4032 11.6298 16.4032 11.2933 16.6662L6.23467 20.5258C6.19261 20.5574 6.16106 20.5784 6.14002 20.5469Z" fill="#BDBDBD"/>
</svg>
